# Blender v2.76 (sub 0) OBJ File: ''
# www.blender.org
mtllib default_block_1.mtl
o Cube.020_Cube.022
v 0.333334 0.003334 0.999667
v 0.333334 0.336667 0.999667
v 0.333334 0.003334 0.666333
v 0.333334 0.336667 0.666333
v 0.666668 0.003334 0.999667
v 0.666668 0.336667 0.999667
v 0.666668 0.003334 0.666333
v 0.666668 0.336667 0.666333
v 0.000001 0.003334 0.999667
v 0.000001 0.336667 0.999667
v 0.000001 0.003334 0.666333
v 0.000001 0.336667 0.666333
v 0.333334 0.003334 0.999667
v 0.333334 0.336667 0.999667
v 0.333334 0.003334 0.666333
v 0.333334 0.336667 0.666333
v 0.000001 0.003334 0.666333
v 0.000001 0.336667 0.666333
v 0.000001 0.003334 0.333000
v 0.000001 0.336667 0.333000
v 0.333334 0.003334 0.666333
v 0.333334 0.336667 0.666333
v 0.333334 0.003334 0.333000
v 0.333334 0.336667 0.333000
v 0.333334 0.003334 0.333000
v 0.333334 0.336667 0.333000
v 0.333334 0.003334 -0.000333
v 0.333334 0.336667 -0.000333
v 0.666668 0.003334 0.333000
v 0.666668 0.336667 0.333000
v 0.666668 0.003334 -0.000333
v 0.666668 0.336667 -0.000333
v 0.666668 0.003334 0.666333
v 0.666668 0.336667 0.666333
v 0.666668 0.003334 0.333000
v 0.666668 0.336667 0.333000
v 1.000001 0.003334 0.666333
v 1.000001 0.336667 0.666333
v 1.000001 0.003334 0.333000
v 1.000001 0.336667 0.333000
v 0.666668 0.336667 0.999667
v 0.666668 0.670000 0.999667
v 0.666668 0.336667 0.666333
v 0.666668 0.670000 0.666333
v 1.000001 0.336667 0.999667
v 1.000001 0.670000 0.999667
v 1.000001 0.336667 0.666333
v 1.000001 0.670000 0.666333
v 0.666668 0.003334 0.999667
v 0.666668 0.336667 0.999667
v 0.666668 0.003334 0.666333
v 0.666668 0.336667 0.666333
v 1.000001 0.003334 0.999667
v 1.000001 0.336667 0.999667
v 1.000001 0.003334 0.666333
v 1.000001 0.336667 0.666333
v 0.666668 0.003334 0.333000
v 0.666668 0.336667 0.333000
v 0.666668 0.003334 -0.000333
v 0.666668 0.336667 -0.000333
v 1.000001 0.003334 0.333000
v 1.000001 0.336667 0.333000
v 1.000001 0.003334 -0.000333
v 1.000001 0.336667 -0.000333
v 0.666668 0.336667 0.333000
v 0.666668 0.670000 0.333000
v 0.666668 0.336667 -0.000333
v 0.666668 0.670000 -0.000333
v 1.000001 0.336667 0.333000
v 1.000001 0.670000 0.333000
v 1.000001 0.336667 -0.000333
v 1.000001 0.670000 -0.000333
v 0.000001 0.670000 0.666333
v 0.000001 1.003333 0.666333
v 0.000001 0.670000 0.333000
v 0.000001 1.003333 0.333000
v 0.333334 0.670000 0.666333
v 0.333334 1.003333 0.666333
v 0.333334 0.670000 0.333000
v 0.333334 1.003333 0.333000
v 0.000001 0.670000 0.333000
v 0.000001 1.003333 0.333000
v 0.000001 0.670000 -0.000333
v 0.000001 1.003333 -0.000333
v 0.333334 0.670000 0.333000
v 0.333334 1.003333 0.333000
v 0.333334 0.670000 -0.000333
v 0.333334 1.003333 -0.000333
v 0.333334 0.670000 0.333000
v 0.333334 1.003333 0.333000
v 0.333334 0.670000 -0.000333
v 0.333334 1.003333 -0.000333
v 0.666668 0.670000 0.333000
v 0.666668 1.003333 0.333000
v 0.666668 0.670000 -0.000333
v 0.666668 1.003333 -0.000333
v 0.666668 0.670000 0.333000
v 0.666668 1.003333 0.333000
v 0.666668 0.670000 -0.000333
v 0.666668 1.003333 -0.000333
v 1.000001 0.670000 0.333000
v 1.000001 1.003333 0.333000
v 1.000001 0.670000 -0.000333
v 1.000001 1.003333 -0.000333
v 0.666668 0.670000 0.666333
v 0.666668 1.003333 0.666333
v 0.666668 0.670000 0.333000
v 0.666668 1.003333 0.333000
v 1.000001 0.670000 0.666333
v 1.000001 1.003333 0.666333
v 1.000001 0.670000 0.333000
v 1.000001 1.003333 0.333000
v 0.333334 0.670000 0.999667
v 0.333334 1.003333 0.999667
v 0.333334 0.670000 0.666333
v 0.333334 1.003333 0.666333
v 0.666668 0.670000 0.999667
v 0.666668 1.003333 0.999667
v 0.666668 0.670000 0.666333
v 0.666668 1.003333 0.666333
v 0.666668 0.670000 0.999667
v 0.666668 1.003334 0.999667
v 0.666668 0.670000 0.666333
v 0.666668 1.003334 0.666333
v 1.000001 0.670000 0.999667
v 1.000001 1.003334 0.999667
v 1.000001 0.670000 0.666333
v 1.000001 1.003334 0.666333
v 0.000001 0.670000 0.999667
v 0.000001 1.003333 0.999667
v 0.000001 0.670000 0.666333
v 0.000001 1.003333 0.666333
v 0.333334 0.670000 0.999667
v 0.333334 1.003333 0.999667
v 0.333334 0.670000 0.666333
v 0.333334 1.003333 0.666333
v 0.000001 0.336667 0.333000
v 0.000001 0.670000 0.333000
v 0.000001 0.336667 -0.000333
v 0.000001 0.670000 -0.000333
v 0.333334 0.336667 0.333000
v 0.333334 0.670000 0.333000
v 0.333334 0.336667 -0.000333
v 0.333334 0.670000 -0.000333
v 0.000001 0.003334 0.333000
v 0.000001 0.336667 0.333000
v 0.000001 0.003334 -0.000333
v 0.000001 0.336667 -0.000333
v 0.333334 0.003334 0.333000
v 0.333334 0.336667 0.333000
v 0.333334 0.003334 -0.000333
v 0.333334 0.336667 -0.000333
v 0.000001 0.336667 0.999667
v 0.000001 0.670000 0.999667
v 0.000001 0.336667 0.666333
v 0.000001 0.670000 0.666333
v 0.333334 0.336667 0.999667
v 0.333334 0.670000 0.999667
v 0.333334 0.336667 0.666333
v 0.333334 0.670000 0.666333
v 0.000001 0.003334 0.999667
v 0.000001 0.336667 0.999667
v 0.000001 0.003334 0.666333
v 0.000001 0.336667 0.666333
v 0.333334 0.003334 0.999667
v 0.333334 0.336667 0.999667
v 0.333334 0.003334 0.666333
v 0.333334 0.336667 0.666333
v 0.000001 0.003334 0.666333
v 0.000001 0.336667 0.666333
v 0.000001 0.003334 0.333000
v 0.000001 0.336667 0.333000
v 0.333334 0.003334 0.666333
v 0.333334 0.336667 0.666333
v 0.333334 0.003334 0.333000
v 0.333334 0.336667 0.333000
vt 0.000000 0.000000
vt 1.000000 0.000000
vt 1.000000 1.000000
vt 0.000000 1.000000
vn -1.000000 0.000000 0.000000
vn 0.000000 0.000000 -1.000000
vn 1.000000 0.000000 0.000000
vn 0.000000 0.000000 1.000000
vn 0.000000 -1.000000 0.000000
vn 0.000000 1.000000 0.000000
usemtl None
s off
f 2/1/1 4/2/1 3/3/1 1/4/1
f 4/1/2 8/2/2 7/3/2 3/4/2
f 8/1/3 6/2/3 5/3/3 7/4/3
f 6/1/4 2/2/4 1/3/4 5/4/4
f 1/1/5 3/2/5 7/3/5 5/4/5
f 6/1/6 8/2/6 4/3/6 2/4/6
f 10/1/1 12/2/1 11/3/1 9/4/1
f 12/1/2 16/2/2 15/3/2 11/4/2
f 16/1/3 14/2/3 13/3/3 15/4/3
f 14/1/4 10/2/4 9/3/4 13/4/4
f 9/1/5 11/2/5 15/3/5 13/4/5
f 14/1/6 16/2/6 12/3/6 10/4/6
f 18/1/1 20/2/1 19/3/1 17/4/1
f 20/1/2 24/2/2 23/3/2 19/4/2
f 24/1/3 22/2/3 21/3/3 23/4/3
f 22/1/4 18/2/4 17/3/4 21/4/4
f 17/1/5 19/2/5 23/3/5 21/4/5
f 22/1/6 24/2/6 20/3/6 18/4/6
f 26/1/1 28/2/1 27/3/1 25/4/1
f 28/1/2 32/2/2 31/3/2 27/4/2
f 32/1/3 30/2/3 29/3/3 31/4/3
f 30/1/4 26/2/4 25/3/4 29/4/4
f 25/1/5 27/2/5 31/3/5 29/4/5
f 30/1/6 32/2/6 28/3/6 26/4/6
f 34/1/1 36/2/1 35/3/1 33/4/1
f 36/1/2 40/2/2 39/3/2 35/4/2
f 40/1/3 38/2/3 37/3/3 39/4/3
f 38/1/4 34/2/4 33/3/4 37/4/4
f 33/1/5 35/2/5 39/3/5 37/4/5
f 38/1/6 40/2/6 36/3/6 34/4/6
f 42/1/1 44/2/1 43/3/1 41/4/1
f 44/1/2 48/2/2 47/3/2 43/4/2
f 48/1/3 46/2/3 45/3/3 47/4/3
f 46/1/4 42/2/4 41/3/4 45/4/4
f 41/1/5 43/2/5 47/3/5 45/4/5
f 46/1/6 48/2/6 44/3/6 42/4/6
f 50/1/1 52/2/1 51/3/1 49/4/1
f 52/1/2 56/2/2 55/3/2 51/4/2
f 56/1/3 54/2/3 53/3/3 55/4/3
f 54/1/4 50/2/4 49/3/4 53/4/4
f 49/1/5 51/2/5 55/3/5 53/4/5
f 54/1/6 56/2/6 52/3/6 50/4/6
f 58/1/1 60/2/1 59/3/1 57/4/1
f 60/1/2 64/2/2 63/3/2 59/4/2
f 64/1/3 62/2/3 61/3/3 63/4/3
f 62/1/4 58/2/4 57/3/4 61/4/4
f 57/1/5 59/2/5 63/3/5 61/4/5
f 62/1/6 64/2/6 60/3/6 58/4/6
f 66/1/1 68/2/1 67/3/1 65/4/1
f 68/1/2 72/2/2 71/3/2 67/4/2
f 72/1/3 70/2/3 69/3/3 71/4/3
f 70/1/4 66/2/4 65/3/4 69/4/4
f 65/1/5 67/2/5 71/3/5 69/4/5
f 70/1/6 72/2/6 68/3/6 66/4/6
f 74/1/1 76/2/1 75/3/1 73/4/1
f 76/1/2 80/2/2 79/3/2 75/4/2
f 80/1/3 78/2/3 77/3/3 79/4/3
f 78/1/4 74/2/4 73/3/4 77/4/4
f 73/1/5 75/2/5 79/3/5 77/4/5
f 78/1/6 80/2/6 76/3/6 74/4/6
f 82/1/1 84/2/1 83/3/1 81/4/1
f 84/1/2 88/2/2 87/3/2 83/4/2
f 88/1/3 86/2/3 85/3/3 87/4/3
f 86/1/4 82/2/4 81/3/4 85/4/4
f 81/1/5 83/2/5 87/3/5 85/4/5
f 86/1/6 88/2/6 84/3/6 82/4/6
f 90/1/1 92/2/1 91/3/1 89/4/1
f 92/1/2 96/2/2 95/3/2 91/4/2
f 96/1/3 94/2/3 93/3/3 95/4/3
f 94/1/4 90/2/4 89/3/4 93/4/4
f 89/1/5 91/2/5 95/3/5 93/4/5
f 94/1/6 96/2/6 92/3/6 90/4/6
f 98/1/1 100/2/1 99/3/1 97/4/1
f 100/1/2 104/2/2 103/3/2 99/4/2
f 104/1/3 102/2/3 101/3/3 103/4/3
f 102/1/4 98/2/4 97/3/4 101/4/4
f 97/1/5 99/2/5 103/3/5 101/4/5
f 102/1/6 104/2/6 100/3/6 98/4/6
f 106/1/1 108/2/1 107/3/1 105/4/1
f 108/1/2 112/2/2 111/3/2 107/4/2
f 112/1/3 110/2/3 109/3/3 111/4/3
f 110/1/4 106/2/4 105/3/4 109/4/4
f 105/1/5 107/2/5 111/3/5 109/4/5
f 110/1/6 112/2/6 108/3/6 106/4/6
f 114/1/1 116/2/1 115/3/1 113/4/1
f 116/1/2 120/2/2 119/3/2 115/4/2
f 120/1/3 118/2/3 117/3/3 119/4/3
f 118/1/4 114/2/4 113/3/4 117/4/4
f 113/1/5 115/2/5 119/3/5 117/4/5
f 118/1/6 120/2/6 116/3/6 114/4/6
f 122/1/1 124/2/1 123/3/1 121/4/1
f 124/1/2 128/2/2 127/3/2 123/4/2
f 128/1/3 126/2/3 125/3/3 127/4/3
f 126/1/4 122/2/4 121/3/4 125/4/4
f 121/1/5 123/2/5 127/3/5 125/4/5
f 126/1/6 128/2/6 124/3/6 122/4/6
f 130/1/1 132/2/1 131/3/1 129/4/1
f 132/1/2 136/2/2 135/3/2 131/4/2
f 136/1/3 134/2/3 133/3/3 135/4/3
f 134/1/4 130/2/4 129/3/4 133/4/4
f 129/1/5 131/2/5 135/3/5 133/4/5
f 134/1/6 136/2/6 132/3/6 130/4/6
f 138/1/1 140/2/1 139/3/1 137/4/1
f 140/1/2 144/2/2 143/3/2 139/4/2
f 144/1/3 142/2/3 141/3/3 143/4/3
f 142/1/4 138/2/4 137/3/4 141/4/4
f 137/1/5 139/2/5 143/3/5 141/4/5
f 142/1/6 144/2/6 140/3/6 138/4/6
f 146/1/1 148/2/1 147/3/1 145/4/1
f 148/1/2 152/2/2 151/3/2 147/4/2
f 152/1/3 150/2/3 149/3/3 151/4/3
f 150/1/4 146/2/4 145/3/4 149/4/4
f 145/1/5 147/2/5 151/3/5 149/4/5
f 150/1/6 152/2/6 148/3/6 146/4/6
f 154/1/1 156/2/1 155/3/1 153/4/1
f 156/1/2 160/2/2 159/3/2 155/4/2
f 160/1/3 158/2/3 157/3/3 159/4/3
f 158/1/4 154/2/4 153/3/4 157/4/4
f 153/1/5 155/2/5 159/3/5 157/4/5
f 158/1/6 160/2/6 156/3/6 154/4/6
f 162/1/1 164/2/1 163/3/1 161/4/1
f 164/1/2 168/2/2 167/3/2 163/4/2
f 168/1/3 166/2/3 165/3/3 167/4/3
f 166/1/4 162/2/4 161/3/4 165/4/4
f 161/1/5 163/2/5 167/3/5 165/4/5
f 166/1/6 168/2/6 164/3/6 162/4/6
f 170/1/1 172/2/1 171/3/1 169/4/1
f 172/1/2 176/2/2 175/3/2 171/4/2
f 176/1/3 174/2/3 173/3/3 175/4/3
f 174/1/4 170/2/4 169/3/4 173/4/4
f 169/1/5 171/2/5 175/3/5 173/4/5
f 174/1/6 176/2/6 172/3/6 170/4/6
