# Blender v2.76 (sub 0) OBJ File: ''
# www.blender.org
mtllib laniaite_fabricator.mtl
o Cube.001_Cube.012
v 0.440000 0.560000 0.750632
v 0.440000 0.440000 0.750632
v 0.440000 0.560000 0.870632
v 0.440000 0.440000 0.870632
v 0.560000 0.560000 0.750632
v 0.560000 0.440000 0.750632
v 0.560000 0.560000 0.870632
v 0.560000 0.440000 0.870632
v 0.540000 0.640000 0.750632
v 0.460000 0.640000 0.750632
v 0.540000 0.640000 0.830632
v 0.460000 0.640000 0.830632
v 0.540000 0.560000 0.750632
v 0.460000 0.560000 0.750632
v 0.540000 0.560000 0.830632
v 0.460000 0.560000 0.830632
v 0.530000 0.733332 0.844857
v 0.470000 0.733332 0.844857
v 0.530000 0.694365 0.890482
v 0.470000 0.694365 0.890482
v 0.530000 0.687707 0.805890
v 0.470000 0.687707 0.805890
v 0.530000 0.648740 0.851515
v 0.470000 0.648740 0.851515
v 0.522500 0.740663 0.944055
v 0.477500 0.740663 0.944055
v 0.522500 0.696217 0.951094
v 0.477500 0.696217 0.951094
v 0.522500 0.733624 0.899609
v 0.477500 0.733624 0.899609
v 0.522500 0.689178 0.906648
v 0.477500 0.689178 0.906648
v 0.516875 0.696527 1.004199
v 0.483125 0.696527 1.004199
v 0.516875 0.667750 0.986564
v 0.483125 0.667750 0.986564
v 0.516875 0.714161 0.975422
v 0.483125 0.714161 0.975422
v 0.516875 0.685385 0.957788
v 0.483125 0.685385 0.957788
v 0.512656 0.642061 1.017001
v 0.487344 0.642061 1.017001
v 0.512656 0.634239 0.992927
v 0.487344 0.634239 0.992927
v 0.512656 0.666134 1.009179
v 0.487344 0.666134 1.009179
v 0.512656 0.658312 0.985105
v 0.487344 0.658312 0.985105
v 0.460000 0.360000 0.750632
v 0.540000 0.360000 0.750632
v 0.460000 0.360000 0.830632
v 0.540000 0.360000 0.830632
v 0.460000 0.440000 0.750632
v 0.540000 0.440000 0.750632
v 0.460000 0.440000 0.830632
v 0.540000 0.440000 0.830632
v 0.470000 0.266668 0.844857
v 0.530000 0.266668 0.844857
v 0.470000 0.305635 0.890482
v 0.530000 0.305635 0.890482
v 0.470000 0.312293 0.805890
v 0.530000 0.312293 0.805890
v 0.470000 0.351260 0.851515
v 0.530000 0.351260 0.851515
v 0.477500 0.259337 0.944055
v 0.522500 0.259337 0.944055
v 0.477500 0.303783 0.951094
v 0.522500 0.303783 0.951094
v 0.477500 0.266376 0.899609
v 0.522500 0.266376 0.899609
v 0.477500 0.310822 0.906648
v 0.522500 0.310822 0.906648
v 0.483125 0.303473 1.004199
v 0.516875 0.303473 1.004199
v 0.483125 0.332250 0.986564
v 0.516875 0.332250 0.986564
v 0.483125 0.285839 0.975422
v 0.516875 0.285839 0.975422
v 0.483125 0.314615 0.957788
v 0.516875 0.314615 0.957788
v 0.487344 0.357939 1.017001
v 0.512656 0.357939 1.017001
v 0.487344 0.365761 0.992927
v 0.512656 0.365761 0.992927
v 0.487344 0.333866 1.009179
v 0.512656 0.333866 1.009179
v 0.487344 0.341688 0.985105
v 0.512656 0.341688 0.985105
v 0.640000 0.460000 0.750632
v 0.640000 0.540000 0.750632
v 0.640000 0.460000 0.830632
v 0.640000 0.540000 0.830632
v 0.560000 0.460000 0.750632
v 0.560000 0.540000 0.750632
v 0.560000 0.460000 0.830632
v 0.560000 0.540000 0.830632
v 0.733332 0.470000 0.844857
v 0.733332 0.530000 0.844857
v 0.694365 0.470000 0.890482
v 0.694365 0.530000 0.890482
v 0.687707 0.470000 0.805890
v 0.687707 0.530000 0.805890
v 0.648740 0.470000 0.851515
v 0.648740 0.530000 0.851515
v 0.740663 0.477500 0.944055
v 0.740663 0.522500 0.944055
v 0.696217 0.477500 0.951094
v 0.696217 0.522500 0.951094
v 0.733624 0.477500 0.899609
v 0.733624 0.522500 0.899609
v 0.689178 0.477500 0.906648
v 0.689178 0.522500 0.906648
v 0.696527 0.483125 1.004199
v 0.696527 0.516875 1.004199
v 0.667750 0.483125 0.986564
v 0.667750 0.516875 0.986564
v 0.714161 0.483125 0.975422
v 0.714161 0.516875 0.975422
v 0.685385 0.483125 0.957788
v 0.685385 0.516875 0.957788
v 0.642061 0.487344 1.017001
v 0.642061 0.512656 1.017001
v 0.634239 0.487344 0.992927
v 0.634239 0.512656 0.992927
v 0.666134 0.487344 1.009179
v 0.666134 0.512656 1.009179
v 0.658312 0.487344 0.985105
v 0.658312 0.512656 0.985105
v 0.360000 0.540000 0.750632
v 0.360000 0.460000 0.750632
v 0.360000 0.540000 0.830632
v 0.360000 0.460000 0.830632
v 0.440000 0.540000 0.750632
v 0.440000 0.460000 0.750632
v 0.440000 0.540000 0.830632
v 0.440000 0.460000 0.830632
v 0.266668 0.530000 0.844857
v 0.266668 0.470000 0.844857
v 0.305635 0.530000 0.890482
v 0.305635 0.470000 0.890482
v 0.312293 0.530000 0.805890
v 0.312293 0.470000 0.805890
v 0.351260 0.530000 0.851515
v 0.351260 0.470000 0.851515
v 0.259337 0.522500 0.944055
v 0.259337 0.477500 0.944055
v 0.303783 0.522500 0.951094
v 0.303783 0.477500 0.951094
v 0.266376 0.522500 0.899609
v 0.266376 0.477500 0.899609
v 0.310822 0.522500 0.906648
v 0.310822 0.477500 0.906648
v 0.303473 0.516875 1.004199
v 0.303473 0.483125 1.004199
v 0.332250 0.516875 0.986564
v 0.332250 0.483125 0.986564
v 0.285839 0.516875 0.975422
v 0.285839 0.483125 0.975422
v 0.314615 0.516875 0.957788
v 0.314615 0.483125 0.957788
v 0.357939 0.512656 1.017001
v 0.357939 0.487344 1.017001
v 0.365761 0.512656 0.992927
v 0.365761 0.487344 0.992927
v 0.333866 0.512656 1.009179
v 0.333866 0.487344 1.009179
v 0.341688 0.512656 0.985105
v 0.341688 0.487344 0.985105
vt 0.000000 0.000000
vt 1.000000 0.000000
vt 1.000000 1.000000
vt 0.000000 1.000000
vn -1.000000 0.000000 0.000000
vn 1.000000 0.000000 0.000000
vn 0.000000 0.000000 -1.000000
vn 0.000000 1.000000 0.000000
vn 0.000000 -1.000000 0.000000
vn 0.000000 0.000000 1.000000
vn 0.000000 0.760400 0.649400
vn 0.000000 -0.649400 0.760400
vn 0.000000 -0.760400 -0.649400
vn 0.000000 0.649400 -0.760400
vn 0.000000 0.156400 0.987700
vn 0.000000 -0.987700 0.156400
vn 0.000000 -0.156400 -0.987700
vn 0.000000 0.987700 -0.156400
vn 0.000000 -0.522500 0.852600
vn 0.000000 -0.852600 -0.522500
vn 0.000000 0.522500 -0.852600
vn 0.000000 0.852600 0.522500
vn 0.000000 -0.951100 0.309000
vn 0.000000 -0.309000 -0.951100
vn -0.000000 0.951100 -0.309000
vn -0.000000 0.309000 0.951100
vn 0.000000 -0.760400 0.649400
vn 0.000000 0.649400 0.760400
vn 0.000000 0.760400 -0.649400
vn 0.000000 -0.649400 -0.760400
vn 0.000000 -0.156400 0.987700
vn 0.000000 0.987700 0.156400
vn 0.000000 0.156400 -0.987700
vn 0.000000 -0.987700 -0.156400
vn -0.000000 0.522500 0.852600
vn 0.000000 0.852600 -0.522500
vn 0.000000 -0.522500 -0.852600
vn -0.000000 -0.852600 0.522500
vn 0.000000 0.951100 0.309000
vn 0.000000 0.309000 -0.951100
vn 0.000000 -0.951100 -0.309000
vn 0.000000 -0.309000 0.951100
vn 0.760400 0.000000 0.649400
vn -0.649400 0.000000 0.760400
vn -0.760400 0.000000 -0.649400
vn 0.649400 0.000000 -0.760400
vn 0.156400 0.000000 0.987700
vn -0.987700 0.000000 0.156400
vn -0.156400 0.000000 -0.987700
vn 0.987700 0.000000 -0.156400
vn -0.522500 0.000000 0.852600
vn -0.852600 0.000000 -0.522500
vn 0.522500 0.000000 -0.852600
vn 0.852600 0.000000 0.522500
vn -0.951100 0.000000 0.309000
vn -0.309000 0.000000 -0.951100
vn 0.951100 0.000000 -0.309000
vn 0.309000 0.000000 0.951100
vn -0.760400 0.000000 0.649400
vn 0.649400 0.000000 0.760400
vn 0.760400 0.000000 -0.649400
vn -0.649400 0.000000 -0.760400
vn -0.156400 0.000000 0.987700
vn 0.987700 0.000000 0.156400
vn 0.156400 -0.000000 -0.987700
vn -0.987700 0.000000 -0.156400
vn 0.522500 0.000000 0.852600
vn 0.852600 -0.000000 -0.522500
vn -0.522500 -0.000000 -0.852600
vn -0.852600 0.000000 0.522500
vn 0.951100 0.000000 0.309000
vn 0.309000 -0.000000 -0.951100
vn -0.951100 -0.000000 -0.309000
vn -0.309000 -0.000000 0.951100
usemtl None
s off
f 2/1/1 4/2/1 3/3/1 1/4/1
f 8/1/2 6/2/2 5/3/2 7/4/2
f 6/1/3 2/2/3 1/3/3 5/4/3
f 1/1/4 3/2/4 7/3/4 5/4/4
f 6/1/5 8/2/5 4/3/5 2/4/5
f 10/1/4 12/2/4 11/3/4 9/4/4
f 12/1/6 16/2/6 15/3/6 11/4/6
f 16/1/5 14/2/5 13/3/5 15/4/5
f 14/1/3 10/2/3 9/3/3 13/4/3
f 9/1/2 11/2/2 15/3/2 13/4/2
f 14/1/1 16/2/1 12/3/1 10/4/1
f 18/1/7 20/2/7 19/3/7 17/4/7
f 20/1/8 24/2/8 23/3/8 19/4/8
f 24/1/9 22/2/9 21/3/9 23/4/9
f 22/1/10 18/2/10 17/3/10 21/4/10
f 17/1/2 19/2/2 23/3/2 21/4/2
f 22/1/1 24/2/1 20/3/1 18/4/1
f 26/1/11 28/2/11 27/3/11 25/4/11
f 28/1/12 32/2/12 31/3/12 27/4/12
f 32/1/13 30/2/13 29/3/13 31/4/13
f 30/1/14 26/2/14 25/3/14 29/4/14
f 25/1/2 27/2/2 31/3/2 29/4/2
f 30/1/1 32/2/1 28/3/1 26/4/1
f 34/1/15 36/2/15 35/3/15 33/4/15
f 36/1/16 40/2/16 39/3/16 35/4/16
f 40/1/17 38/2/17 37/3/17 39/4/17
f 38/1/18 34/2/18 33/3/18 37/4/18
f 33/1/2 35/2/2 39/3/2 37/4/2
f 38/1/1 40/2/1 36/3/1 34/4/1
f 42/1/19 44/2/19 43/3/19 41/4/19
f 44/1/20 48/2/20 47/3/20 43/4/20
f 48/1/21 46/2/21 45/3/21 47/4/21
f 46/1/22 42/2/22 41/3/22 45/4/22
f 41/1/2 43/2/2 47/3/2 45/4/2
f 46/1/1 48/2/1 44/3/1 42/4/1
f 50/1/5 52/2/5 51/3/5 49/4/5
f 52/1/6 56/2/6 55/3/6 51/4/6
f 56/1/4 54/2/4 53/3/4 55/4/4
f 54/1/3 50/2/3 49/3/3 53/4/3
f 49/1/1 51/2/1 55/3/1 53/4/1
f 54/1/2 56/2/2 52/3/2 50/4/2
f 58/1/23 60/2/23 59/3/23 57/4/23
f 60/1/24 64/2/24 63/3/24 59/4/24
f 64/1/25 62/2/25 61/3/25 63/4/25
f 62/1/26 58/2/26 57/3/26 61/4/26
f 57/1/1 59/2/1 63/3/1 61/4/1
f 62/1/2 64/2/2 60/3/2 58/4/2
f 66/1/27 68/2/27 67/3/27 65/4/27
f 68/1/28 72/2/28 71/3/28 67/4/28
f 72/1/29 70/2/29 69/3/29 71/4/29
f 70/1/30 66/2/30 65/3/30 69/4/30
f 65/1/1 67/2/1 71/3/1 69/4/1
f 70/1/2 72/2/2 68/3/2 66/4/2
f 74/1/31 76/2/31 75/3/31 73/4/31
f 76/1/32 80/2/32 79/3/32 75/4/32
f 80/1/33 78/2/33 77/3/33 79/4/33
f 78/1/34 74/2/34 73/3/34 77/4/34
f 73/1/1 75/2/1 79/3/1 77/4/1
f 78/1/2 80/2/2 76/3/2 74/4/2
f 82/1/35 84/2/35 83/3/35 81/4/35
f 84/1/36 88/2/36 87/3/36 83/4/36
f 88/1/37 86/2/37 85/3/37 87/4/37
f 86/1/38 82/2/38 81/3/38 85/4/38
f 81/1/1 83/2/1 87/3/1 85/4/1
f 86/1/2 88/2/2 84/3/2 82/4/2
f 90/1/2 92/2/2 91/3/2 89/4/2
f 92/1/6 96/2/6 95/3/6 91/4/6
f 96/1/1 94/2/1 93/3/1 95/4/1
f 94/1/3 90/2/3 89/3/3 93/4/3
f 89/1/5 91/2/5 95/3/5 93/4/5
f 94/1/4 96/2/4 92/3/4 90/4/4
f 98/1/39 100/2/39 99/3/39 97/4/39
f 100/1/40 104/2/40 103/3/40 99/4/40
f 104/1/41 102/2/41 101/3/41 103/4/41
f 102/1/42 98/2/42 97/3/42 101/4/42
f 97/1/5 99/2/5 103/3/5 101/4/5
f 102/1/4 104/2/4 100/3/4 98/4/4
f 106/1/43 108/2/43 107/3/43 105/4/43
f 108/1/44 112/2/44 111/3/44 107/4/44
f 112/1/45 110/2/45 109/3/45 111/4/45
f 110/1/46 106/2/46 105/3/46 109/4/46
f 105/1/5 107/2/5 111/3/5 109/4/5
f 110/1/4 112/2/4 108/3/4 106/4/4
f 114/1/47 116/2/47 115/3/47 113/4/47
f 116/1/48 120/2/48 119/3/48 115/4/48
f 120/1/49 118/2/49 117/3/49 119/4/49
f 118/1/50 114/2/50 113/3/50 117/4/50
f 113/1/5 115/2/5 119/3/5 117/4/5
f 118/1/4 120/2/4 116/3/4 114/4/4
f 122/1/51 124/2/51 123/3/51 121/4/51
f 124/1/52 128/2/52 127/3/52 123/4/52
f 128/1/53 126/2/53 125/3/53 127/4/53
f 126/1/54 122/2/54 121/3/54 125/4/54
f 121/1/5 123/2/5 127/3/5 125/4/5
f 126/1/4 128/2/4 124/3/4 122/4/4
f 130/1/1 132/2/1 131/3/1 129/4/1
f 132/1/6 136/2/6 135/3/6 131/4/6
f 136/1/2 134/2/2 133/3/2 135/4/2
f 134/1/3 130/2/3 129/3/3 133/4/3
f 129/1/4 131/2/4 135/3/4 133/4/4
f 134/1/5 136/2/5 132/3/5 130/4/5
f 138/1/55 140/2/55 139/3/55 137/4/55
f 140/1/56 144/2/56 143/3/56 139/4/56
f 144/1/57 142/2/57 141/3/57 143/4/57
f 142/1/58 138/2/58 137/3/58 141/4/58
f 137/1/4 139/2/4 143/3/4 141/4/4
f 142/1/5 144/2/5 140/3/5 138/4/5
f 146/1/59 148/2/59 147/3/59 145/4/59
f 148/1/60 152/2/60 151/3/60 147/4/60
f 152/1/61 150/2/61 149/3/61 151/4/61
f 150/1/62 146/2/62 145/3/62 149/4/62
f 145/1/4 147/2/4 151/3/4 149/4/4
f 150/1/5 152/2/5 148/3/5 146/4/5
f 154/1/63 156/2/63 155/3/63 153/4/63
f 156/1/64 160/2/64 159/3/64 155/4/64
f 160/1/65 158/2/65 157/3/65 159/4/65
f 158/1/66 154/2/66 153/3/66 157/4/66
f 153/1/4 155/2/4 159/3/4 157/4/4
f 158/1/5 160/2/5 156/3/5 154/4/5
f 162/1/67 164/2/67 163/3/67 161/4/67
f 164/1/68 168/2/68 167/3/68 163/4/68
f 168/1/69 166/2/69 165/3/69 167/4/69
f 166/1/70 162/2/70 161/3/70 165/4/70
f 161/1/4 163/2/4 167/3/4 165/4/4
f 166/1/5 168/2/5 164/3/5 162/4/5
usemtl None_laniaite_fabricator_face.png
f 4/1/6 8/2/6 7/3/6 3/4/6
o Cube
v 0.750000 0.250000 0.250000
v 0.750000 0.250000 0.750000
v 0.250000 0.250000 0.750000
v 0.250000 0.250000 0.250000
v 0.750000 0.750000 0.250000
v 0.750000 0.750000 0.750000
v 0.250000 0.750000 0.750000
v 0.250000 0.750000 0.250000
vt 0.000000 0.000000
vt 1.000000 0.000000
vt 1.000000 1.000000
vt 0.000000 1.000000
vn 0.000000 -1.000000 -0.000000
vn 0.000000 1.000000 0.000000
vn 1.000000 -0.000000 0.000000
vn -0.000000 -0.000000 1.000000
vn -1.000000 -0.000000 -0.000000
vn 0.000000 0.000000 -1.000000
usemtl Material
s off
f 169/5/71 170/6/71 171/7/71 172/8/71
f 173/5/72 176/6/72 175/7/72 174/8/72
f 169/5/73 173/6/73 174/7/73 170/8/73
f 170/5/74 174/6/74 175/7/74 171/8/74
f 171/5/75 175/6/75 176/7/75 172/8/75
f 173/5/76 169/6/76 172/7/76 176/8/76
